<?xml version="1.0" standalone="no"?>
<!DOCTYPE svg PUBLIC "-//W3C//DTD SVG 20010904//EN"
 "http://www.w3.org/TR/2001/REC-SVG-20010904/DTD/svg10.dtd">
<svg version="1.0" xmlns="http://www.w3.org/2000/svg"
 width="400.000000pt" height="400.000000pt" viewBox="0 0 400.000000 400.000000"
 preserveAspectRatio="xMidYMid meet">
<metadata>
Created by potrace 1.11, written by Peter Selinger 2001-2013
</metadata>
<g transform="translate(0.000000,400.000000) scale(0.100000,-0.100000)"
fill="#000000" stroke="none">
<path d="M1395 3590 c-218 -8 -322 -20 -380 -44 -77 -33 -134 -113 -135 -189
0 -21 15 -84 34 -140 63 -189 61 -158 61 -1232 0 -1059 3 -1005 -56 -1195 -16
-52 -29 -112 -28 -135 2 -111 69 -179 207 -212 69 -16 131 -18 607 -18 l530 0
131 27 c415 86 683 299 788 625 55 172 55 412 0 578 -61 186 -202 357 -387
468 l-58 34 31 13 c64 27 173 173 223 299 76 196 77 457 2 641 -98 237 -343
409 -666 466 -111 20 -551 27 -904 14z m660 -480 c189 -30 293 -124 315 -283
23 -160 -18 -298 -116 -393 -88 -86 -189 -111 -474 -116 l-135 -3 -3 250 c-2
240 9 501 23 538 6 15 24 17 169 17 88 0 188 -4 221 -10z m121 -1261 c70 -12
186 -67 229 -107 94 -88 125 -172 125 -341 0 -212 -61 -328 -215 -405 -94 -48
-234 -68 -457 -64 -108 2 -200 7 -205 11 -4 5 -8 207 -8 449 0 424 1 440 19
454 16 11 65 14 236 14 119 0 243 -5 276 -11z"/>
</g>
</svg>
